<mxfile host="app.diagrams.net" modified="2023-07-05T02:47:04.643Z" agent="Mozilla/5.0 (Macintosh; Intel Mac OS X 10.15; rv:109.0) Gecko/20100101 Firefox/114.0" version="21.5.2" etag="EFQv_xc-e91NU0NdVpcn" type="github">
  <diagram name="Page-1" id="BD3sNvUIHq6IaHYWQJXR">
    <mxGraphModel>
      <root>
        <mxCell id="0" />
        <mxCell id="1" parent="0" />
      </root>
    </mxGraphModel>
  </diagram>
</mxfile>
